<?xml version="1.0" encoding="utf-8"?>
<!-- Generator: Adobe Illustrator 22.1.0, SVG Export Plug-In . SVG Version: 6.00 Build 0)  -->
<svg version="1.1"
	 id="Capa_1" text-rendering="geometricPrecision" image-rendering="optimizeQuality" shape-rendering="geometricPrecision"
	 xmlns="http://www.w3.org/2000/svg" xmlns:xlink="http://www.w3.org/1999/xlink" x="0px" y="0px" viewBox="0 0 157.8 112.1"
	 style="enable-background:new 0 0 157.8 112.1;" xml:space="preserve">
<style type="text/css">
	.st0{fill:#1A171B;}
	.st1{fill:#FFFFFF;}
</style>
<g>
	<path class="st1" d="M52,7.2C40.4,15.8,31.7,24.3,25.7,33c-5.9,8.6-8.9,17.1-8.9,25.2c0,5.7,0.4,9.7,1.2,11.9
		c0.8,2.2,2.1,3.3,4,3.3c0.1,0,2.4-2.7,6.8-8.2c4.4-5.5,9.8-8.2,16.2-8.2c7.3,0,13,2.2,17,6.5c4,4.3,6.1,10.5,6.1,18.4
		c0,8.9-2.8,16.1-8.3,21.8c-5.6,5.7-12.8,8.5-21.6,8.5c-11.1,0-20.3-4-27.4-12C3.6,92,0,81.8,0,69.3c0-13,3.8-25.2,11.4-36.7
		C19.1,21.2,30.6,10.3,46.1,0L52,7.2z M141.7,7.2c-11.6,8.5-20.3,17.1-26.3,25.7c-5.9,8.6-8.9,17.1-8.9,25.2c0,5.5,0.4,9.4,1.3,11.7
		c0.8,2.3,2.3,3.5,4.3,3.5c8.6-11,16.2-16.5,22.7-16.5c7.3,0,13,2.2,17,6.5c4,4.3,6.1,10.5,6.1,18.4c0,8.9-2.8,16.1-8.3,21.8
		c-5.6,5.7-12.8,8.5-21.6,8.5c-11.1,0-20.3-4-27.5-12c-7.2-8-10.9-18.3-10.9-30.7c0-13,3.8-25.2,11.5-36.7
		c7.7-11.4,19.3-22.3,34.8-32.6L141.7,7.2z"/>
</g>
</svg>
